<?xml version="1.0" encoding="utf-8"?>
<!-- Generator: Adobe Illustrator 27.9.0, SVG Export Plug-In . SVG Version: 6.00 Build 0)  -->
<svg version="1.1" id="Layer_1" xmlns="http://www.w3.org/2000/svg" xmlns:xlink="http://www.w3.org/1999/xlink" x="0px" y="0px"
	 viewBox="0 0 106.3 99.2" style="enable-background:new 0 0 106.3 99.2;" xml:space="preserve">
<style type="text/css">
	.st0{fill:#012831;}
</style>
<path class="st0" d="M73.1,76.2c-1.5,0-2.9-0.5-4.1-1.5c-1.5-1.3-2.3-3.1-2.3-5c0-3.2,2.3-5.9,5.5-6.5c12-2.1,21-12.8,21-25
	c0-13.8-11.3-25-25.2-25H39.7c-2.2,0-4,1.8-4,4v9.4c0,3.6-2.9,6.5-6.5,6.5s-6.6-2.9-6.6-6.5V0H68c21.2,0,38.4,17.1,38.4,38.1
	c0,18.6-13.9,35-32.2,38C73.8,76.1,73.4,76.2,73.1,76.2L73.1,76.2z"/>
<path class="st0" d="M50.4,64.1H35.1V48.8c0-3.6-2.9-6.5-6.5-6.5h-0.2c-3.6,0-6.5,2.9-6.5,6.5v15.3H6.5C2.9,64.1,0,67,0,70.6v0.2
	c0,3.6,2.9,6.5,6.5,6.5h15.3v15.3c0,3.6,2.9,6.5,6.5,6.5h0.2c3.6,0,6.5-2.9,6.5-6.5V77.4h15.3c3.6,0,6.5-2.9,6.5-6.5v-0.2
	C56.9,67,54,64.1,50.4,64.1z"/>
</svg>
