<?xml version="1.0" encoding="UTF-8"?>
<svg xmlns="http://www.w3.org/2000/svg" xmlns:xlink="http://www.w3.org/1999/xlink" viewBox="0 0 1008 1008">
  <defs>
    <style>
      .cls-1 {
        fill: #012831;
        mix-blend-mode: multiply;
      }

      .cls-1, .cls-2, .cls-3 {
        stroke-width: 0px;
      }

      .cls-2 {
        fill: url(#linear-gradient);
      }

      .cls-4 {
        isolation: isolate;
      }

      .cls-3 {
        fill: #fff;
      }
    </style>
    <linearGradient id="linear-gradient" x1="147.62" y1="860.38" x2="860.38" y2="147.62" gradientUnits="userSpaceOnUse">
      <stop offset="0" stop-color="#97cc04"/>
      <stop offset=".14" stop-color="#6abf36"/>
      <stop offset=".5" stop-color="#00a0af"/>
      <stop offset="1" stop-color="#1976d2"/>
    </linearGradient>
  </defs>
  <g class="cls-4">
    <g id="Layer_1" data-name="Layer 1">
      <g>
        <g>
          <circle class="cls-1" cx="504" cy="504" r="467.96"/>
          <path class="cls-2" d="m504,36.04c258.45,0,467.96,209.51,467.96,467.96s-209.51,467.96-467.96,467.96S36.04,762.45,36.04,504,245.55,36.04,504,36.04m0-36.04C369.38,0,242.81,52.42,147.62,147.62,52.43,242.81,0,369.38,0,504s52.43,261.19,147.62,356.38c95.19,95.19,221.76,147.62,356.38,147.62s261.19-52.43,356.38-147.62c95.19-95.19,147.62-221.76,147.62-356.38s-52.43-261.19-147.62-356.38C765.19,52.42,638.62,0,504,0h0Z"/>
        </g>
        <g>
          <path class="cls-3" d="m581.85,604.85c-5.68,0-11.25-2.04-15.72-5.84-5.74-4.88-9.03-11.99-9.03-19.51,0-12.46,8.96-22.9,21.31-25.03,46.25-8.02,81.12-49.6,81.12-96.72,0-53.4-43.73-96.84-97.49-96.84h-109.43c-8.48,0-15.38,6.9-15.38,15.38v36.22c0,13.92-11.32,25.24-25.25,25.24s-25.59-11.32-25.59-25.24v-102.17h175.65c81.79,0,148.33,66.13,148.33,147.41,0,72.13-53.62,135.24-124.72,146.8-1.26.21-2.53.31-3.79.31Z"/>
          <path class="cls-3" d="m494.14,558.08h-59.17v-59.17c0-13.87-11.35-25.22-25.22-25.22h-.95c-13.87,0-25.22,11.35-25.22,25.22v59.17h-59.17c-13.87,0-25.22,11.35-25.22,25.22v.95c0,13.87,11.35,25.22,25.22,25.22h59.17v59.17c0,13.87,11.35,25.22,25.22,25.22h.95c13.87,0,25.22-11.35,25.22-25.22v-59.17h59.17c13.87,0,25.22-11.35,25.22-25.22v-.95c0-13.87-11.35-25.22-25.22-25.22Z"/>
        </g>
      </g>
    </g>
  </g>
</svg>